<?xml version="1.0" standalone="no"?>
<!DOCTYPE svg PUBLIC "-//W3C//DTD SVG 20010904//EN"
 "http://www.w3.org/TR/2001/REC-SVG-20010904/DTD/svg10.dtd">
<svg version="1.0" xmlns="http://www.w3.org/2000/svg"
 width="500.000000pt" height="150.000000pt" viewBox="0 0 500.000000 150.000000"
 preserveAspectRatio="xMidYMid meet">

<g transform="translate(0.000000,150.000000) scale(0.100000,-0.100000)"
fill="#000000" stroke="none">
<path d="M640 1345 c-238 -54 -427 -243 -476 -475 -61 -287 110 -579 404 -688
89 -33 249 -42 340 -18 118 30 263 117 314 188 l22 31 -34 28 -33 28 -56 -50
c-112 -100 -244 -146 -386 -136 -268 20 -469 215 -483 468 -8 155 38 279 143
384 200 200 518 207 726 17 l56 -51 33 27 c29 25 31 31 21 50 -30 56 -182 154
-290 186 -79 23 -223 29 -301 11z"/>
<path d="M650 1161 c-98 -32 -197 -107 -248 -189 -49 -77 -65 -142 -60 -241 6
-114 42 -194 127 -275 105 -99 246 -140 383 -111 75 15 112 32 181 82 69 51
74 65 31 98 l-35 27 -36 -33 c-99 -86 -250 -110 -363 -58 -79 37 -125 81 -162
157 -28 56 -32 76 -32 137 1 128 66 230 182 287 59 29 76 33 147 33 92 -1 150
-22 222 -81 l43 -35 35 26 c40 31 37 41 -31 96 -77 63 -138 83 -254 86 -58 1
-116 -1 -130 -6z"/>
<path d="M1246 955 c-159 -57 -171 -301 -17 -382 37 -19 59 -23 140 -23 112 0
159 17 208 73 97 110 51 295 -83 335 -55 16 -199 15 -248 -3z m252 -82 c73
-54 72 -180 -3 -229 -28 -19 -136 -30 -189 -20 -104 20 -148 144 -80 226 34
39 72 50 167 46 59 -2 84 -8 105 -23z"/>
<path d="M1697 963 c-4 -3 -7 -98 -7 -210 l0 -203 35 0 35 0 0 152 0 152 158
-157 c87 -86 161 -157 164 -157 4 0 14 7 22 16 14 13 16 47 16 215 l0 199 -35
0 -35 0 0 -152 0 -153 -153 153 c-143 143 -178 168 -200 145z"/>
<path d="M2190 760 l0 -210 35 0 35 0 2 173 3 172 143 3 142 3 0 34 0 35 -180
0 -180 0 0 -210z"/>
<path d="M2709 783 c-62 -103 -119 -198 -127 -210 -14 -23 -14 -23 29 -23 l44
0 94 161 94 160 43 -73 c24 -40 44 -76 44 -79 0 -3 -25 -4 -56 -3 -45 2 -59
-2 -75 -19 -34 -37 -25 -42 75 -39 l94 3 33 -55 c33 -54 35 -56 77 -56 l43 0
-15 28 c-8 15 -64 108 -124 207 -91 151 -113 180 -134 183 -24 3 -36 -12 -139
-185z"/>
<path d="M3170 760 l0 -210 173 0 c199 0 229 8 261 73 22 47 16 95 -19 127
-24 22 -24 23 -4 39 25 20 35 87 17 121 -27 51 -66 60 -255 60 l-173 0 0 -210z
m343 125 c11 -5 17 -18 17 -41 0 -45 -23 -54 -146 -54 l-94 0 0 -30 0 -30 106
0 c120 0 144 -8 144 -49 0 -49 -20 -56 -167 -59 l-133 -4 0 142 0 142 128 -4
c70 -3 135 -8 145 -13z"/>
<path d="M3680 760 l0 -210 35 0 35 0 2 173 3 172 133 0 c129 0 135 -1 153
-24 29 -36 25 -94 -7 -120 -23 -18 -41 -21 -125 -21 l-99 0 0 -30 0 -30 73 0
73 0 59 -60 c57 -57 62 -60 109 -60 l50 0 -63 64 c-61 62 -63 64 -42 76 60 31
82 149 41 215 -34 55 -76 65 -265 65 l-165 0 0 -210z"/>
<path d="M4220 760 l0 -210 35 0 35 0 0 210 0 210 -35 0 -35 0 0 -210z"/>
<path d="M4459 942 c-42 -22 -58 -38 -78 -75 -59 -115 -12 -254 101 -302 49
-20 298 -22 299 -2 0 6 2 22 5 34 3 21 1 21 -134 25 -150 3 -178 13 -208 69
-31 61 -11 149 43 185 23 15 52 19 163 22 l136 4 -4 34 -4 34 -133 0 c-126 0
-136 -1 -186 -28z"/>
<path d="M2320 755 l0 -35 105 0 105 0 0 35 0 35 -105 0 -105 0 0 -35z"/>
<path d="M2847 424 c-9 -10 2 -24 19 -24 8 0 14 7 14 15 0 15 -21 21 -33 9z"/>
<path d="M3110 415 c0 -8 7 -15 15 -15 8 0 15 7 15 15 0 8 -7 15 -15 15 -8 0
-15 -7 -15 -15z"/>
<path d="M3842 363 c2 -53 6 -68 18 -68 9 0 16 11 18 25 6 49 16 56 21 15 4
-26 11 -40 21 -40 11 0 15 12 15 45 0 41 -2 45 -26 48 -17 2 -29 11 -32 23 -3
10 -13 19 -22 19 -13 0 -15 -10 -13 -67z"/>
<path d="M4210 360 c0 -56 3 -70 15 -70 12 0 15 14 15 70 0 56 -3 70 -15 70
-12 0 -15 -14 -15 -70z"/>
<path d="M4510 415 c0 -10 7 -15 18 -13 21 4 19 22 -2 26 -10 2 -16 -3 -16
-13z"/>
<path d="M1677 402 c-35 -39 -7 -112 44 -112 32 0 59 19 59 40 0 24 -17 26
-41 4 -22 -20 -39 -11 -39 21 0 32 16 40 46 24 28 -15 43 -5 28 19 -16 25 -76
27 -97 4z"/>
<path d="M2380 406 c0 -8 -6 -16 -12 -19 -10 -3 -10 -7 -1 -18 6 -8 13 -27 15
-44 2 -22 9 -31 26 -33 15 -2 22 2 22 12 0 9 -4 16 -10 16 -14 0 -12 33 3 49
10 11 10 14 0 18 -7 3 -13 11 -13 19 0 8 -7 14 -15 14 -8 0 -15 -6 -15 -14z"/>
<path d="M2632 358 c2 -49 7 -63 20 -66 11 -2 18 5 20 20 2 15 10 23 24 24 31
2 44 12 44 38 0 33 -19 46 -67 46 l-44 0 3 -62z m66 21 c-2 -6 -8 -10 -13 -10
-5 0 -11 4 -13 10 -2 6 4 11 13 11 9 0 15 -5 13 -11z"/>
<path d="M3034 403 c-17 -29 -5 -101 18 -109 23 -7 52 15 31 23 -7 3 -13 15
-13 28 0 13 6 26 13 29 10 5 10 7 0 12 -7 3 -13 12 -13 20 0 20 -23 18 -36 -3z"/>
<path d="M3460 405 c0 -8 9 -15 19 -15 17 0 20 -8 23 -47 2 -35 7 -48 18 -48
11 0 16 13 18 48 3 39 6 47 23 47 10 0 19 7 19 15 0 12 -13 15 -60 15 -47 0
-60 -3 -60 -15z"/>
<path d="M3355 400 c-3 -5 -17 -10 -30 -10 -31 0 -37 -12 -41 -77 l-4 -54 53
3 c48 3 52 5 52 28 0 21 -6 26 -35 30 l-35 6 33 7 c23 4 32 12 32 26 0 11 3
26 6 35 7 18 -21 23 -31 6z m-10 -40 c-3 -5 -10 -10 -16 -10 -5 0 -9 5 -9 10
0 6 7 10 16 10 8 0 12 -4 9 -10z m10 -70 c4 -6 -6 -10 -22 -9 -25 0 -26 1 -8
9 11 5 21 9 22 9 1 1 5 -3 8 -9z"/>
<path d="M4455 400 c-3 -5 -17 -10 -30 -10 -31 0 -37 -12 -41 -77 l-4 -54 53
3 c48 3 52 5 52 28 0 21 -6 26 -35 30 l-35 6 33 7 c23 4 32 12 32 26 0 11 3
26 6 35 7 18 -21 23 -31 6z m-10 -40 c-3 -5 -10 -10 -16 -10 -5 0 -9 5 -9 10
0 6 7 10 16 10 8 0 12 -4 9 -10z m10 -70 c4 -6 -6 -10 -22 -9 -25 0 -26 1 -8
9 11 5 21 9 22 9 1 1 5 -3 8 -9z"/>
<path d="M1812 378 c-29 -29 -2 -88 39 -88 20 0 59 33 59 51 0 6 -5 19 -10 30
-12 22 -68 27 -88 7z m56 -36 c2 -15 -2 -22 -12 -22 -11 0 -16 9 -16 26 0 31
23 28 28 -4z"/>
<path d="M1922 342 c4 -57 30 -67 38 -14 7 45 24 45 28 0 2 -26 8 -38 18 -38
12 0 14 11 12 48 l-3 47 -48 2 -48 2 3 -47z"/>
<path d="M2050 371 c-16 -31 -12 -49 15 -67 29 -19 70 -13 79 12 5 14 1 15
-29 10 -30 -6 -35 -4 -35 13 0 23 22 41 28 23 4 -13 42 -17 42 -4 0 34 -82 45
-100 13z"/>
<path d="M2170 339 c0 -37 4 -49 15 -49 10 0 15 10 15 31 0 22 5 32 20 36 34
9 23 31 -15 31 l-35 0 0 -49z"/>
<path d="M2249 369 c-24 -46 32 -95 80 -69 34 18 26 33 -14 26 -22 -4 -35 -3
-35 4 0 5 16 10 35 10 22 0 35 5 35 13 0 40 -81 53 -101 16z m61 -9 c0 -5 -7
-10 -15 -10 -8 0 -15 5 -15 10 0 6 7 10 15 10 8 0 15 -4 15 -10z"/>
<path d="M2464 382 c-24 -15 -26 -50 -5 -71 23 -23 43 -26 72 -11 32 17 22 32
-16 24 -23 -4 -35 -2 -35 5 0 6 16 11 35 11 36 0 46 15 23 38 -13 13 -57 16
-74 4z m46 -22 c0 -5 -7 -10 -16 -10 -8 0 -12 5 -9 10 3 6 10 10 16 10 5 0 9
-4 9 -10z"/>
<path d="M2762 342 c4 -57 31 -67 36 -14 2 20 9 32 18 32 8 0 14 6 14 14 0 9
-12 14 -36 14 l-35 0 3 -46z"/>
<path d="M2842 343 c2 -35 7 -48 18 -48 11 0 16 13 18 48 3 42 1 47 -18 47
-19 0 -21 -5 -18 -47z"/>
<path d="M2902 342 c4 -55 31 -68 36 -17 5 41 19 54 27 23 3 -13 5 -30 3 -38
-2 -8 5 -16 15 -18 16 -3 18 2 15 45 l-3 48 -48 2 -48 2 3 -47z"/>
<path d="M3110 340 c0 -38 4 -50 15 -50 11 0 15 12 15 50 0 38 -4 50 -15 50
-11 0 -15 -12 -15 -50z"/>
<path d="M3162 342 c2 -34 7 -48 20 -50 13 -2 17 5 20 35 4 49 22 49 26 1 2
-26 8 -38 18 -38 12 0 14 11 12 48 l-3 47 -48 1 -48 2 3 -46z"/>
<path d="M3614 382 c-24 -15 -26 -50 -5 -71 23 -23 43 -26 72 -11 32 17 22 32
-16 24 -23 -4 -35 -2 -35 5 0 6 16 11 35 11 36 0 46 15 23 38 -13 13 -57 16
-74 4z m46 -22 c0 -5 -7 -10 -16 -10 -8 0 -12 5 -9 10 3 6 10 10 16 10 5 0 9
-4 9 -10z"/>
<path d="M3732 378 c-7 -7 -12 -25 -12 -40 0 -37 38 -57 75 -40 36 16 32 35
-5 27 -23 -5 -32 -3 -36 10 -10 25 10 39 34 24 25 -16 40 -5 22 16 -15 18 -61
20 -78 3z"/>
<path d="M3962 342 c4 -55 31 -68 36 -17 5 41 19 54 27 23 3 -13 5 -30 3 -38
-2 -8 5 -16 15 -18 16 -3 18 2 15 45 l-3 48 -48 2 -48 2 3 -47z"/>
<path d="M4092 378 c-29 -29 -2 -88 39 -88 20 0 59 33 59 51 0 6 -5 19 -10 30
-12 22 -68 27 -88 7z m56 -36 c2 -15 -2 -22 -12 -22 -11 0 -16 9 -16 26 0 31
23 28 28 -4z"/>
<path d="M4272 378 c-35 -35 8 -99 55 -82 37 13 50 37 35 68 -9 20 -19 26 -45
26 -18 0 -38 -5 -45 -12z m56 -36 c2 -15 -2 -22 -12 -22 -11 0 -16 9 -16 26 0
31 23 28 28 -4z"/>
<path d="M4510 339 c0 -40 3 -50 16 -47 8 2 15 6 15 11 -1 4 -1 25 -1 47 0 29
-4 40 -15 40 -11 0 -15 -12 -15 -51z"/>
<path d="M4568 366 c-14 -31 -5 -53 27 -68 19 -8 31 -8 50 0 38 18 32 35 -10
28 -22 -4 -35 -3 -35 4 0 5 16 10 35 10 22 0 35 5 35 13 0 22 -23 37 -57 37
-26 0 -36 -6 -45 -24z m62 -6 c0 -5 -7 -10 -15 -10 -8 0 -15 5 -15 10 0 6 7
10 15 10 8 0 15 -4 15 -10z"/>
<path d="M4697 384 c-16 -16 -6 -44 18 -50 14 -3 25 -10 25 -15 0 -6 -8 -5
-19 1 -26 13 -31 13 -31 -5 0 -20 43 -29 69 -15 30 16 26 39 -11 56 l-33 15
34 -7 c26 -5 32 -3 29 7 -5 15 -69 25 -81 13z"/>
</g>
</svg>
