<svg xmlns="http://www.w3.org/2000/svg" xmlns:xlink="http://www.w3.org/1999/xlink" width="512" height="512" viewBox="0 0 375 374.999991" preserveAspectRatio="xMidYMid meet" version="1.0">
  <defs>
    <clipPath id="4eed716c74">
      <path d="M 44.820312 44.820312 L 330.179688 44.820312 L 330.179688 330.179688 L 44.820312 330.179688 Z M 44.820312 44.820312 " clip-rule="nonzero"/>
    </clipPath>
    <clipPath id="fc4f7ac14d">
      <path d="M 187.5 44.820312 C 108.699219 44.820312 44.820312 108.699219 44.820312 187.5 C 44.820312 266.300781 108.699219 330.179688 187.5 330.179688 C 266.300781 330.179688 330.179688 266.300781 330.179688 187.5 C 330.179688 108.699219 266.300781 44.820312 187.5 44.820312 Z M 187.5 44.820312 " clip-rule="nonzero"/>
    </clipPath>
    <clipPath id="21dcf5faf0">
      <path d="M 0.820312 0.820312 L 286.179688 0.820312 L 286.179688 286.179688 L 0.820312 286.179688 Z M 0.820312 0.820312 " clip-rule="nonzero"/>
    </clipPath>
    <clipPath id="76313f6a90">
      <path d="M 143.5 0.820312 C 64.699219 0.820312 0.820312 64.699219 0.820312 143.5 C 0.820312 222.300781 64.699219 286.179688 143.5 286.179688 C 222.300781 286.179688 286.179688 222.300781 286.179688 143.5 C 286.179688 64.699219 222.300781 0.820312 143.5 0.820312 Z M 143.5 0.820312 " clip-rule="nonzero"/>
    </clipPath>
    <clipPath id="263d32bb34">
      <rect x="0" width="287" y="0" height="287"/>
    </clipPath>
    <clipPath id="df7f213b0e">
      <path d="M 79.753906 79.5 L 277 79.5 L 277 295.5 L 79.753906 295.5 Z M 79.753906 79.5 " clip-rule="nonzero"/>
    </clipPath>
  </defs>
  <!-- Transparent background - no fill -->
  <!-- White circle center -->
  <g clip-path="url(#4eed716c74)">
    <g clip-path="url(#fc4f7ac14d)">
      <g transform="matrix(1, 0, 0, 1, 44, 44)">
        <g clip-path="url(#263d32bb34)">
          <g clip-path="url(#21dcf5faf0)">
            <g clip-path="url(#76313f6a90)">
              <path fill="#fefefd" d="M 0.820312 0.820312 L 286.179688 0.820312 L 286.179688 286.179688 L 0.820312 286.179688 Z M 0.820312 0.820312 " fill-opacity="1" fill-rule="nonzero"/>
            </g>
          </g>
        </g>
      </g>
    </g>
  </g>
  <!-- Gold CC letters -->
  <g clip-path="url(#df7f213b0e)">
    <path fill="#f6cc1d" d="M 263.054688 131.070312 C 254.523438 120.574219 243.941406 112.222656 231.308594 106.015625 C 218.675781 99.808594 204.992188 96.703125 190.257812 96.703125 C 177.441406 96.703125 165.355469 99.078125 154 103.824219 C 142.6875 108.570312 132.792969 115.097656 124.351562 123.3125 C 115.914062 131.570312 109.257812 141.15625 104.421875 152.109375 C 99.585938 163.0625 97.125 174.742188 97.125 187.15625 C 97.125 199.570312 99.542969 211.253906 104.421875 222.207031 C 109.257812 233.160156 115.914062 242.742188 124.351562 250.867188 C 132.792969 259.035156 142.6875 265.46875 154.046875 270.214844 C 165.402344 274.960938 177.488281 277.335938 190.304688 277.335938 C 205.039062 277.335938 218.71875 274.234375 231.355469 268.027344 C 243.988281 261.820312 254.523438 253.46875 263.097656 242.972656 L 276.507812 253.46875 L 276.78125 253.46875 C 266.703125 266.292969 254.160156 276.515625 239.246094 284.089844 C 224.285156 291.710938 208 295.5 190.351562 295.5 C 175.207031 295.5 160.933594 292.625 147.570312 286.917969 C 134.160156 281.214844 122.484375 273.367188 112.496094 263.460938 C 102.507812 253.558594 94.570312 242.058594 88.777344 228.960938 C 82.894531 215.953125 79.976562 202.035156 79.976562 187.25 C 79.976562 172.507812 82.894531 158.542969 88.730469 145.445312 C 94.570312 132.347656 102.460938 120.890625 112.449219 111.082031 C 122.4375 101.269531 134.113281 93.554688 147.523438 87.941406 C 160.886719 82.328125 175.164062 79.5 190.304688 79.5 C 207.957031 79.5 224.285156 83.195312 239.199219 90.589844 C 254.160156 97.984375 266.65625 107.976562 276.734375 120.574219 L 276.460938 120.847656 Z M 190.214844 129.335938 C 182.050781 129.335938 174.339844 130.839844 167.089844 133.851562 C 159.792969 136.863281 153.453125 140.972656 148.023438 146.222656 C 142.597656 151.46875 138.308594 157.628906 135.207031 164.703125 C 132.105469 171.777344 130.554688 179.308594 130.554688 187.292969 C 130.554688 195.28125 132.105469 202.71875 135.207031 209.746094 C 138.308594 216.730469 142.597656 222.84375 148.023438 228.09375 C 153.453125 233.34375 159.792969 237.449219 167.089844 240.460938 C 174.386719 243.472656 182.09375 244.980469 190.214844 244.980469 C 199.699219 244.980469 208.503906 242.972656 216.578125 239 C 224.648438 235.03125 231.355469 229.738281 236.828125 223.121094 L 250.511719 233.617188 C 243.53125 242.378906 234.773438 249.316406 224.332031 254.425781 C 213.839844 259.582031 202.484375 262.140625 190.257812 262.140625 C 179.585938 262.140625 169.597656 260.175781 160.292969 256.296875 C 150.988281 252.417969 142.824219 247.078125 135.847656 240.277344 C 128.777344 233.570312 123.304688 225.582031 119.335938 216.457031 C 115.367188 207.328125 113.359375 197.609375 113.359375 187.339844 C 113.359375 177.070312 115.367188 167.351562 119.335938 158.222656 C 123.304688 149.097656 128.824219 141.15625 135.800781 134.355469 C 142.78125 127.554688 150.945312 122.171875 160.25 118.199219 C 169.550781 114.230469 179.542969 112.222656 190.214844 112.222656 C 202.4375 112.222656 213.792969 114.777344 224.285156 119.933594 C 234.773438 125.089844 243.488281 132.027344 250.464844 140.746094 L 236.78125 151.515625 C 231.171875 144.714844 224.375 139.328125 216.394531 135.359375 C 208.457031 131.34375 199.699219 129.335938 190.214844 129.335938 Z M 190.214844 129.335938 " fill-opacity="1" fill-rule="nonzero"/>
  </g>
</svg>
