<?xml version="1.0" encoding="UTF-8"?>
<svg xmlns="http://www.w3.org/2000/svg" width="560" height="125" viewBox="0 0 560 125">
  <!-- Bottom line -->
  <rect x="20" y="123" width="520" height="2" fill="#f6cc1d"/>

  <!-- Logo from GitHub scaled to fit -->
  <g transform="translate(15, 25) scale(0.65)">
    <g transform="translate(0.000000,150.000000) scale(0.100000,-0.100000)" fill="#000000" stroke="none">
      <path d="M640 1345 c-238 -54 -427 -243 -476 -475 -61 -287 110 -579 404 -688
89 -33 249 -42 340 -18 118 30 263 117 314 188 l22 31 -34 28 -33 28 -56 -50
c-112 -100 -244 -146 -386 -136 -268 20 -469 215 -483 468 -8 155 38 279 143
384 200 200 518 207 726 17 l56 -51 33 27 c29 25 31 31 21 50 -30 56 -182 154
-290 186 -79 23 -223 29 -301 11z"/>
      <path d="M650 1161 c-98 -32 -197 -107 -248 -189 -49 -77 -65 -142 -60 -241 6
-114 42 -194 127 -275 105 -99 246 -140 383 -111 75 15 112 32 181 82 69 51
74 65 31 98 l-35 27 -36 -33 c-99 -86 -250 -110 -363 -58 -79 37 -125 81 -162
157 -28 56 -32 76 -32 137 1 128 66 230 182 287 59 29 76 33 147 33 92 -1 150
-22 222 -81 l43 -35 35 26 c40 31 37 41 -31 96 -77 63 -138 83 -254 86 -58 1
-116 -1 -130 -6z"/>
      <path d="M1246 955 c-159 -57 -171 -301 -17 -382 37 -19 59 -23 140 -23 112 0
159 17 208 73 97 110 51 295 -83 335 -55 16 -199 15 -248 -3z m252 -82 c73
-54 72 -180 -3 -229 -28 -19 -136 -30 -189 -20 -104 20 -148 144 -80 226 34
39 72 50 167 46 59 -2 84 -8 105 -23z"/>
      <path d="M1697 963 c-4 -3 -7 -98 -7 -210 l0 -203 35 0 35 0 0 152 0 152 158
-157 c87 -86 161 -157 164 -157 4 0 14 7 22 16 14 13 16 47 16 215 l0 199 -35
0 -35 0 0 -152 0 -153 -153 153 c-143 143 -178 168 -200 145z"/>
      <path d="M2190 760 l0 -210 35 0 35 0 2 173 3 172 143 3 142 3 0 34 0 35 -180
0 -180 0 0 -210z"/>
      <path d="M2709 783 c-62 -103 -119 -198 -127 -210 -14 -23 -14 -23 29 -23 l44
0 94 161 94 160 43 -73 c24 -40 44 -76 44 -79 0 -3 -25 -4 -56 -3 -45 2 -59
-2 -75 -19 -34 -37 -25 -42 75 -39 l94 3 33 -55 c33 -54 35 -56 77 -56 l43 0
-15 28 c-8 15 -64 108 -124 207 -91 151 -113 180 -134 183 -24 3 -36 -12 -139
-185z"/>
      <path d="M3170 760 l0 -210 173 0 c199 0 229 8 261 73 22 47 16 95 -19 127
-24 22 -24 23 -4 39 25 20 35 87 17 121 -27 51 -66 60 -255 60 l-173 0 0 -210z
m343 125 c11 -5 17 -18 17 -41 0 -45 -23 -54 -146 -54 l-94 0 0 -30 0 -30 106
0 c120 0 144 -8 144 -49 0 -49 -20 -56 -167 -59 l-133 -4 0 142 0 142 128 -4
c70 -3 135 -8 145 -13z"/>
      <path d="M3680 760 l0 -210 35 0 35 0 2 173 3 172 133 0 c129 0 135 -1 153
-24 29 -36 25 -94 -7 -120 -23 -18 -41 -21 -125 -21 l-99 0 0 -30 0 -30 73 0
73 0 59 -60 c57 -57 62 -60 109 -60 l50 0 -63 64 c-61 62 -63 64 -42 76 60 31
82 149 41 215 -34 55 -76 65 -265 65 l-165 0 0 -210z"/>
      <path d="M4220 760 l0 -210 35 0 35 0 0 210 0 210 -35 0 -35 0 0 -210z"/>
      <path d="M4459 942 c-42 -22 -58 -38 -78 -75 -59 -115 -12 -254 101 -302 49
-20 298 -22 299 -2 0 6 2 22 5 34 3 21 1 21 -134 25 -150 3 -178 13 -208 69
-31 61 -11 149 43 185 23 15 52 19 163 22 l136 4 -4 34 -4 34 -133 0 c-126 0
-136 -1 -186 -28z"/>
      <path d="M2320 755 l0 -35 105 0 105 0 0 35 0 35 -105 0 -105 0 0 -35z"/>
    </g>
  </g>
</svg>
