<svg xmlns="http://www.w3.org/2000/svg" xmlns:xlink="http://www.w3.org/1999/xlink" width="480" zoomAndPan="magnify" viewBox="0 0 360 359.999987" height="480" preserveAspectRatio="xMidYMid meet" version="1.0"><defs><clipPath id="03d8b0fd34"><path d="M 108 0 L 252 0 L 252 144 L 108 144 Z M 108 0 " clip-rule="nonzero"/></clipPath><clipPath id="826dd91bf8"><path d="M 125.210938 17.210938 L 234.789062 17.210938 L 234.789062 126.789062 L 125.210938 126.789062 Z M 125.210938 17.210938 " clip-rule="nonzero"/></clipPath><clipPath id="55f45b48d5"><path d="M 180 17.210938 C 149.742188 17.210938 125.210938 41.742188 125.210938 72 C 125.210938 102.257812 149.742188 126.789062 180 126.789062 C 210.257812 126.789062 234.789062 102.257812 234.789062 72 C 234.789062 41.742188 210.257812 17.210938 180 17.210938 Z M 180 17.210938 " clip-rule="nonzero"/></clipPath><clipPath id="abd41bf1f7"><path d="M 180 17.210938 C 149.742188 17.210938 125.210938 41.742188 125.210938 72 C 125.210938 102.257812 149.742188 126.789062 180 126.789062 C 210.257812 126.789062 234.789062 102.257812 234.789062 72 C 234.789062 41.742188 210.257812 17.210938 180 17.210938 Z M 180 17.210938 " clip-rule="nonzero"/></clipPath><clipPath id="748b4c3bf2"><path d="M 138.625 30.527344 L 214.367188 30.527344 L 214.367188 113.472656 L 138.625 113.472656 Z M 138.625 30.527344 " clip-rule="nonzero"/></clipPath></defs><g clip-path="url(#826dd91bf8)"><g clip-path="url(#55f45b48d5)"><g clip-path="url(#abd41bf1f7)"><path fill="#f6cc1d" d="M 125.210938 17.210938 L 234.789062 17.210938 L 234.789062 126.789062 L 125.210938 126.789062 Z M 125.210938 17.210938 " fill-opacity="1" fill-rule="nonzero"/></g></g></g><g clip-path="url(#748b4c3bf2)"><path fill="#000000" d="M 209.011719 50.332031 C 205.738281 46.300781 201.671875 43.09375 196.824219 40.710938 C 191.972656 38.328125 186.71875 37.132812 181.058594 37.132812 C 176.136719 37.132812 171.496094 38.046875 167.136719 39.867188 C 162.792969 41.691406 158.992188 44.199219 155.75 47.351562 C 152.511719 50.523438 149.953125 54.203125 148.097656 58.410156 C 146.242188 62.617188 145.296875 67.101562 145.296875 71.867188 C 145.296875 76.636719 146.222656 81.121094 148.097656 85.328125 C 149.953125 89.535156 152.511719 93.214844 155.75 96.332031 C 158.992188 99.46875 162.792969 101.941406 167.152344 103.761719 C 171.515625 105.585938 176.15625 106.496094 181.078125 106.496094 C 186.734375 106.496094 191.988281 105.304688 196.839844 102.921875 C 201.691406 100.539062 205.738281 97.332031 209.03125 93.300781 L 214.179688 97.332031 L 214.285156 97.332031 C 210.414062 102.257812 205.597656 106.183594 199.871094 109.089844 C 194.125 112.015625 187.871094 113.472656 181.09375 113.472656 C 175.28125 113.472656 169.796875 112.367188 164.667969 110.175781 C 159.515625 107.988281 155.035156 104.972656 151.199219 101.167969 C 147.363281 97.367188 144.316406 92.949219 142.089844 87.921875 C 139.832031 82.925781 138.710938 77.582031 138.710938 71.902344 C 138.710938 66.242188 139.832031 60.878906 142.074219 55.851562 C 144.316406 50.820312 147.34375 46.421875 151.179688 42.65625 C 155.015625 38.886719 159.5 35.925781 164.648438 33.769531 C 169.78125 31.613281 175.261719 30.527344 181.078125 30.527344 C 187.855469 30.527344 194.125 31.945312 199.851562 34.785156 C 205.597656 37.625 210.394531 41.464844 214.265625 46.300781 L 214.160156 46.40625 Z M 181.042969 49.664062 C 177.90625 49.664062 174.945312 50.242188 172.164062 51.398438 C 169.359375 52.554688 166.925781 54.132812 164.839844 56.148438 C 162.757812 58.164062 161.109375 60.53125 159.917969 63.246094 C 158.726562 65.960938 158.132812 68.855469 158.132812 71.921875 C 158.132812 74.988281 158.726562 77.84375 159.917969 80.542969 C 161.109375 83.222656 162.757812 85.570312 164.839844 87.589844 C 166.925781 89.605469 169.359375 91.179688 172.164062 92.335938 C 174.964844 93.492188 177.925781 94.074219 181.042969 94.074219 C 184.683594 94.074219 188.066406 93.300781 191.164062 91.777344 C 194.265625 90.253906 196.839844 88.21875 198.941406 85.679688 L 204.195312 89.710938 C 201.515625 93.074219 198.152344 95.738281 194.144531 97.699219 C 190.113281 99.679688 185.753906 100.660156 181.058594 100.660156 C 176.960938 100.660156 173.125 99.90625 169.550781 98.417969 C 165.980469 96.929688 162.84375 94.878906 160.164062 92.265625 C 157.449219 89.691406 155.347656 86.625 153.824219 83.121094 C 152.300781 79.613281 151.53125 75.882812 151.53125 71.9375 C 151.53125 67.996094 152.300781 64.261719 153.824219 60.757812 C 155.347656 57.253906 157.46875 54.203125 160.148438 51.59375 C 162.828125 48.980469 165.964844 46.914062 169.535156 45.386719 C 173.109375 43.863281 176.945312 43.09375 181.042969 43.09375 C 185.734375 43.09375 190.097656 44.074219 194.125 46.054688 C 198.152344 48.035156 201.5 50.699219 204.179688 54.046875 L 198.925781 58.183594 C 196.769531 55.570312 194.160156 53.503906 191.09375 51.976562 C 188.046875 50.4375 184.683594 49.664062 181.042969 49.664062 Z M 181.042969 49.664062 " fill-opacity="1" fill-rule="nonzero"/></g></svg>
